<svg width="610" height="102" viewBox="0 0 610 102" fill="none" xmlns="http://www.w3.org/2000/svg">
<g clip-path="url(#clip0_22_166)">
<path d="M32.7477 62.9193C32.1338 60.9752 31.2809 59.2121 30.1889 57.6426C29.0968 56.0667 27.7981 54.7363 26.299 53.6383C24.7998 52.5404 23.1586 51.8364 21.3881 51.5135C20.7032 51.3714 19.9536 51.2551 19.1394 51.1712C18.3188 51.0807 17.3108 51.0355 16.1218 51.0355C15.7148 51.0355 15.2689 51.042 14.7907 51.0614C14.3126 51.0807 13.8473 51.113 13.3821 51.1647C12.9233 51.2164 12.4968 51.2616 12.1027 51.2939C11.7085 51.3326 11.3919 51.3843 11.1593 51.4553C10.9848 53.1927 10.8879 55.5759 10.8556 58.6179C10.8233 61.6599 10.8039 65.2831 10.8039 69.4941V75.7008C10.8039 77.5415 10.8233 79.0463 10.8556 80.2088C10.8556 80.7061 10.8814 81.2422 10.9331 81.8299C10.9848 82.4112 11.043 82.9796 11.1141 83.5285C11.1851 84.0775 11.295 84.5748 11.4436 85.014C11.5987 85.4596 11.7731 85.7826 11.9799 85.9957C12.6649 86.7061 13.5243 87.1582 14.5646 87.352C15.6049 87.5458 16.5871 87.6426 17.5046 87.6426C18.3576 87.6426 19.2364 87.5974 20.141 87.5135C21.0456 87.423 21.8921 87.2551 22.674 87.0097C26.3571 85.9117 29.1098 83.7804 30.9384 80.6157C32.7606 77.451 33.6782 73.5501 33.6782 68.9193C33.6782 66.8655 33.368 64.8698 32.7541 62.9257M39.0413 75.8106C38.4275 77.8256 37.5939 79.563 36.5342 81.0097C35.4745 82.4564 34.2468 83.6642 32.8511 84.6136C31.4554 85.5694 29.9692 86.3315 28.399 86.8934C26.8288 87.4618 25.2069 87.8558 23.5398 88.0883C21.8663 88.3208 20.2444 88.4306 18.6807 88.4306H0V87.901C0.852939 87.7912 1.68003 87.5651 2.48128 87.2099C3.28252 86.8547 3.88992 86.4349 4.297 85.9376C4.46501 85.7632 4.59424 85.4596 4.67824 85.0334C4.76224 84.6071 4.83978 84.1292 4.9044 83.5996C4.97548 83.07 5.02717 82.5016 5.05948 81.901C5.09179 81.3003 5.11117 80.7126 5.11117 80.1507C5.11117 79.6534 5.11763 78.9817 5.13702 78.1356C5.1564 77.2831 5.16933 76.3595 5.18871 75.352C5.2081 74.3445 5.21456 73.3111 5.21456 72.2519V56.9193C5.21456 56.2799 5.18871 55.6921 5.13702 55.1432C5.08533 54.5942 5.00779 54.1033 4.9044 53.6577C4.80101 53.2185 4.65239 52.8698 4.44562 52.6243C3.93515 51.9849 3.32129 51.5458 2.60405 51.2939C1.8868 51.0484 1.08556 50.8741 0.200311 50.7643V50.2347C1.6348 50.2347 3.69607 50.2282 6.39058 50.2088C9.08509 50.1895 12.3418 50.183 16.1606 50.183H19.4367C20.561 50.183 21.6918 50.2347 22.8161 50.3445C23.9404 50.4478 25.0648 50.6286 26.1956 50.8741C27.3199 51.1195 28.4313 51.4941 29.5233 51.9849C30.9578 52.6243 32.3018 53.4317 33.5683 54.4263C34.8283 55.4144 35.9268 56.5899 36.8702 57.9526C37.8072 59.3154 38.5567 60.8913 39.1253 62.6739C39.6875 64.4629 39.9718 66.5038 39.9718 68.803C39.9718 71.4575 39.6617 73.789 39.0478 75.8041" fill="white"/>
<path d="M48.7403 69.4941C48.7403 77.6706 55.0792 84.8655 62.7686 84.8655C70.4579 84.8655 76.8485 77.6706 76.8485 69.4941C76.8485 61.3176 70.5613 54.1744 62.7686 54.1744C54.9758 54.1744 48.7403 61.3692 48.7403 69.4941ZM44.1008 69.4941C44.1008 58.6243 51.9905 49.7697 62.7686 49.7697C73.5466 49.7697 81.5397 58.6243 81.5397 69.4941C81.5397 80.3638 73.65 89.2121 62.7686 89.2121C51.8871 89.2121 44.1008 80.4155 44.1008 69.4941Z" fill="white"/>
<path d="M91.4194 88.437V50.5511H92.2207L109.493 72.6007L126.816 50.5511H127.611V88.437H123.023V62.971L109.493 80.5189L96.0654 62.971V88.437H91.4194Z" fill="white"/>
<path d="M145.433 50.5511H140.741V88.437H145.433V50.5511Z" fill="white"/>
<path d="M189.359 88.437L165.302 65.9225V88.437H158.362V50.5511H159.112L183.123 73.479V50.5511H190.108V88.437H189.359Z" fill="white"/>
<path d="M207.981 50.5511H203.29V88.437H207.981V50.5511Z" fill="white"/>
<path d="M250.758 68.6157C250.758 56.9192 246.319 50.6027 239.178 50.6027C232.038 50.6027 227.599 56.9192 227.599 68.6157C227.599 80.3121 232.038 86.6286 239.178 86.6286C246.319 86.6286 250.758 80.3121 250.758 68.6157ZM252.205 102C245.569 102 238.629 93.5651 232.936 93.5651C232.038 93.5651 231.237 93.7201 230.494 94.0818C230.746 96.8783 229.447 97.705 228.2 97.705C227.199 97.705 226.449 96.775 226.449 95.5801C226.449 93.6103 228 92.0086 232.29 90.1937L235.586 88.7987C226.404 87.3003 218.714 80.1054 218.714 68.6092C218.714 55.6663 228.497 48.1097 239.178 48.1097C249.86 48.1097 259.643 55.6663 259.643 68.6092C259.643 81.5522 249.911 89.1087 239.224 89.1087L230.539 92.6286C232.239 92.1119 234.384 91.9569 235.683 91.9569C243.372 91.9569 248.16 95.2701 252.858 95.2701C255.753 95.2701 257.95 93.8234 259.546 90.297L261.245 90.8654C259.1 96.1937 256.102 101.993 252.212 101.993" fill="white"/>
<path d="M269.477 73.4273V50.5511H274.117V73.1689C274.117 82.5403 280.708 84.9171 284.701 84.9171C288.694 84.9171 295.285 82.5339 295.285 73.1689V50.5511H299.925V73.4273C299.925 83.0053 293.935 89.1603 284.701 89.1603C275.467 89.1603 269.477 82.9989 269.477 73.4273Z" fill="white"/>
<path d="M316.654 54.5877V67.6276H335.27V71.7675H316.654V84.2971H337.719V88.437H311.962V50.5511H337.719V54.5877H316.654Z" fill="white"/>
<path d="M385.367 54.9817C384.501 53.5867 383.241 52.4758 381.587 51.6491C380.76 51.2552 379.887 50.971 378.97 50.7901C378.052 50.6093 377.096 50.5253 376.094 50.5253C375.371 50.5253 374.783 50.5447 374.33 50.577C373.885 50.6093 373.536 50.648 373.297 50.6868C373.264 50.8999 373.225 51.0872 373.193 51.2487C373.161 51.4102 373.135 51.6168 373.116 51.8687C373.096 52.1206 373.083 52.4694 373.064 52.915C373.045 53.3606 373.019 54 372.986 54.8203C372.954 56.0732 372.928 57.4877 372.909 59.0635C372.889 60.6394 372.883 62.1572 372.883 63.6297V69.5393C374.298 69.5393 375.623 69.4747 376.844 69.352C378.072 69.2293 379.254 68.971 380.391 68.5705C381.496 68.2153 382.446 67.7309 383.241 67.1238C384.036 66.5167 384.682 65.8257 385.186 65.0571C385.684 64.2885 386.058 63.4554 386.297 62.5576C386.536 61.6599 386.659 60.7299 386.659 59.7675C386.659 57.9785 386.226 56.3832 385.367 54.9882M390.491 88.4371C390.181 88.1141 389.955 87.8752 389.819 87.7137C389.683 87.5522 389.528 87.365 389.354 87.1518C389.179 86.9387 388.966 86.6222 388.708 86.2153C388.449 85.802 388.042 85.1884 387.493 84.3617C386.834 83.3606 386.259 82.4564 385.755 81.6491C385.251 80.8418 384.747 80.0474 384.23 79.2595C383.713 78.4715 383.151 77.6771 382.543 76.8698C381.936 76.0625 381.225 75.1583 380.391 74.1572C379.7 73.3305 378.95 72.5619 378.136 71.845C377.322 71.1281 376.469 70.6825 375.571 70.5017C374.912 70.3596 374.414 70.2885 374.072 70.2885C373.762 70.2885 373.361 70.2691 372.883 70.2369V76.3079C372.883 78.0259 372.902 79.4726 372.935 80.6545C372.967 81.7977 373.006 82.7858 373.038 83.6061C373.07 84.4328 373.264 85.1109 373.607 85.647C373.885 86.112 374.421 86.5899 375.216 87.0679C376.01 87.5522 377.115 87.83 378.53 87.901V88.4371H361.956V87.901C362.822 87.7589 363.649 87.5458 364.444 87.2552C365.239 86.971 365.859 86.5383 366.311 85.9699C366.486 85.7568 366.622 85.4338 366.725 85.0011C366.828 84.5749 366.906 84.0905 366.958 83.5544C367.009 83.0183 367.055 82.4435 367.087 81.8364C367.119 81.2293 367.139 80.6351 367.139 80.0603C367.139 79.563 367.145 78.8784 367.164 78.0194C367.184 77.1604 367.197 76.2175 367.216 75.197C367.235 74.1766 367.242 73.1303 367.242 72.0582V58.4694C367.242 57.8235 367.235 57.1712 367.216 56.506C367.197 55.8472 367.164 55.2142 367.113 54.6265C367.061 54.0388 366.977 53.4963 366.854 53.0183C366.731 52.5339 366.57 52.1852 366.363 51.9721C365.846 51.4037 365.265 51.0162 364.631 50.816C363.992 50.6222 363.203 50.4478 362.273 50.3057V49.7697H364.399C365.575 49.7697 366.899 49.7632 368.386 49.7438C369.872 49.7245 371.358 49.718 372.838 49.718H376.463C378.776 49.718 380.831 49.7891 382.627 49.9311C384.424 50.0732 386.065 50.5576 387.551 51.3779C389.069 52.2046 390.297 53.3219 391.228 54.7363C392.158 56.1507 392.623 57.9333 392.623 60.0775C392.623 61.4015 392.391 62.5899 391.925 63.6491C391.46 64.7083 390.84 65.6384 390.058 66.4392C389.283 67.2465 388.372 67.9376 387.338 68.506C386.304 69.0808 385.212 69.5652 384.075 69.9527V70.1141C384.663 70.4371 385.231 70.9021 385.787 71.5092C386.343 72.1163 386.872 72.7944 387.396 73.5501C388.294 74.9128 389.27 76.3789 390.323 77.9548C391.376 79.5307 392.32 80.9258 393.147 82.1464C394.426 84.0065 395.667 85.3693 396.875 86.2282C398.083 87.0872 399.499 87.6427 401.12 87.8946V88.4306H390.504L390.491 88.4371Z" fill="white"/>
<path d="M415.213 56.183V65.8902H433.325V72.465H415.213V81.8622H435.626V88.437H408.099V49.6017H435.626V56.183H415.213Z" fill="white"/>
<path d="M478.609 88.437L453.944 65.3606V88.437H446.837V49.6017H447.599L472.212 73.1044V49.6017H479.378V88.437H478.609Z" fill="white"/>
<path d="M501.683 75.8622H512.377L507.059 64.1399L501.683 75.8622ZM487.564 88.437L506.697 49.6017H507.415L526.548 88.437H518.774L515.86 82.3337H498.207L495.338 88.437H487.564Z" fill="white"/>
<path d="M532.331 72.7879V49.6017H539.49V72.7879C539.49 80.5898 545.067 82.6049 548.394 82.6049C551.722 82.6049 557.299 80.5898 557.299 72.7879V49.6017H564.458V72.7879C564.458 82.7082 558.165 89.1281 548.394 89.1281C538.624 89.1281 532.331 82.7082 532.331 72.7879Z" fill="white"/>
<path d="M583.604 81.7524H591.229C596.495 81.7524 602.789 79.8406 602.789 69.0742C602.789 58.3078 596.443 56.2863 591.229 56.2863H583.604V81.7524ZM576.438 88.437V49.6017H591.222C603.247 49.6017 610 57.1324 610 69.0161C610 80.8999 603.454 88.437 591.222 88.437H576.438Z" fill="white"/>
<path d="M2.39722 0.8396V38.732H5.44066V22.0108H24.8063V19.2142H5.44066V3.63616H27.4038V0.8396H2.39722Z" fill="white"/>
<path d="M62.9235 12.8913C62.3937 10.6954 61.5924 8.70613 60.5198 6.92356C59.4472 5.13454 58.1096 3.68783 56.5006 2.57049C54.8982 1.45962 53.0049 0.897728 50.8208 0.897728C48.6368 0.897728 46.6854 1.45316 45.0635 2.57049C43.4416 3.68137 42.1105 5.12808 41.0702 6.89127C40.0299 8.66092 39.2609 10.6695 38.7699 12.9106C38.2723 15.1582 38.0268 17.4316 38.0268 19.7309C38.0268 22.0301 38.2982 24.4521 38.8474 26.6803C39.3902 28.9085 40.2043 30.8719 41.277 32.5705C42.3496 34.2691 43.7001 35.6319 45.322 36.6523C46.9439 37.6792 48.8242 38.1894 50.9759 38.1894C53.1277 38.1894 54.9951 37.6211 56.5782 36.4908C58.1678 35.3606 59.4859 33.901 60.5456 32.1119C61.6054 30.3229 62.3937 28.3208 62.9235 26.0926C63.4534 23.8644 63.7183 21.6362 63.7183 19.408C63.7183 17.1798 63.4534 15.0743 62.9235 12.8848M68.5258 27.2164C67.5049 29.6189 66.1156 31.705 64.358 33.4747C62.6005 35.2443 60.5521 36.6071 58.2194 37.563C55.8803 38.5188 53.399 38.9968 50.7756 38.9968C48.1522 38.9968 45.7291 38.5317 43.4093 37.5888C41.0896 36.6458 39.0606 35.3283 37.3224 33.6103C35.5843 31.8988 34.2079 29.845 33.2064 27.4553C32.1983 25.0656 31.6943 22.4435 31.6943 19.5759C31.6943 16.5339 32.2242 13.8019 33.2839 11.38C34.3436 8.95801 35.7652 6.90419 37.5551 5.22496C39.3449 3.54574 41.445 2.25403 43.8487 1.34983C46.2525 0.445629 48.7854 -0.00646973 51.4476 -0.00646973C54.3489 -0.00646973 56.9465 0.523132 59.2533 1.58234C61.5537 2.64154 63.5115 4.06888 65.114 5.85144C66.7165 7.64046 67.9442 9.70074 68.7972 12.0323C69.6501 14.3638 70.0766 16.8052 70.0766 19.3563C70.0766 22.1851 69.5661 24.8008 68.5387 27.2099" fill="white"/>
<path d="M104.298 0.8396V31.4855L77.288 0.8396H76.3381V38.732H79.388V7.98276L106.346 38.732H107.341V0.8396H104.298Z" fill="white"/>
<path d="M120.368 35.9354H130.299C135.94 35.9354 145.723 33.8105 145.723 19.8407C145.723 5.87082 135.889 3.63616 130.299 3.63616H120.368V35.9354ZM117.324 38.732V0.8396H130.952C141.633 0.8396 148.825 6.94939 148.825 19.7825C148.825 32.6157 141.685 38.7772 130.952 38.7255H117.324V38.732Z" fill="white"/>
<path d="M169.838 6.74272L179.473 27.8105H160.204L169.838 6.74272ZM169.341 0.8396L151.817 38.732H155.112L158.853 30.6588H180.868L184.61 38.732H187.905L170.387 0.8396H169.341Z" fill="white"/>
<path d="M187.511 0.8396V3.63616H198.942V38.732H201.985V3.63616H213.571V0.8396H187.511Z" fill="white"/>
<path d="M223.651 0.8396H220.607V38.732H223.651V0.8396Z" fill="white"/>
<path d="M235.082 19.7826C235.082 28.9408 242.021 36.7621 250.506 36.7621C258.99 36.7621 266.078 28.9473 266.078 19.7826C266.078 10.6179 259.138 2.80304 250.506 2.80304C241.873 2.80304 235.082 10.6696 235.082 19.7826ZM232.038 19.7826C232.038 8.91283 239.773 0.0129395 250.506 0.0129395C261.238 0.0129395 269.122 8.91929 269.122 19.789C269.122 30.6588 261.335 39.5587 250.506 39.5587C239.676 39.5587 232.032 30.7105 232.032 19.789" fill="white"/>
<path d="M312.615 2.06675C311.846 2.56406 311.258 3.31971 310.851 4.34662C310.612 4.87623 310.457 5.85793 310.392 7.29173C310.321 8.72553 310.257 10.2562 310.186 11.8773C310.114 13.4015 310.056 15.197 310.005 17.2637C309.953 19.3305 309.927 21.5522 309.927 23.9225V27.3197C309.927 28.5598 309.933 29.8192 309.953 31.1109C309.972 32.4026 309.979 33.6814 309.979 34.9537V38.4026C309.979 38.5447 309.933 38.6609 309.849 38.7449C309.765 38.8353 309.636 38.8805 309.468 38.8805C309.197 38.8805 308.887 38.7062 308.551 38.3509C305.649 34.8891 303.007 31.7051 300.622 28.8052C298.238 25.9053 295.957 23.1346 293.792 20.4995C291.628 17.8644 289.502 15.2939 287.421 12.7815C285.34 10.2691 283.137 7.67278 280.824 4.97956V27.3714C280.824 29.1733 280.862 30.8009 280.953 32.2541C281.037 33.7008 281.25 34.7794 281.593 35.4898C281.967 36.3036 282.555 36.9107 283.357 37.3176C284.158 37.7245 285.256 38.0151 286.659 38.1959V38.7255H274.071V38.1959C274.892 38.0861 275.706 37.8665 276.527 37.5307C277.347 37.1949 277.994 36.6394 278.472 35.8579C278.95 35.1152 279.254 34.0172 279.389 32.5705C279.525 31.1173 279.628 29.3865 279.699 27.3714C279.77 25.8536 279.816 24.0581 279.854 21.9849C279.887 19.9182 279.906 17.6965 279.906 15.3262V8.8547C279.906 8.14426 279.887 7.27881 279.854 6.2519C279.751 5.22499 279.512 4.38538 279.137 3.73306C278.762 3.08075 278.317 2.56406 277.806 2.19593C277.296 1.82779 276.74 1.55653 276.139 1.40152C275.545 1.24006 274.969 1.13026 274.427 1.05922V0.529617H284.811L309.068 29.9225V11.8838C309.068 10.4693 309.048 9.1195 309.016 7.82779C308.984 6.53608 308.829 5.52208 308.557 4.77935C308.215 3.79119 307.607 2.98387 306.741 2.36385C305.869 1.74383 304.616 1.3111 302.981 1.06568V0.536076H315.671V1.06568C314.411 1.24006 313.397 1.58236 312.628 2.07321" fill="white"/>
</g>
<defs>
<clipPath id="clip0_22_166">
<rect width="610" height="102" fill="white"/>
</clipPath>
</defs>
</svg>
