<svg width="108" height="124" viewBox="0 0 108 124" fill="none" xmlns="http://www.w3.org/2000/svg">
<g clip-path="url(#clip0_22_203)">
<path d="M5.84396 89.6751L5.86138 34.0304L54.1328 6.67789L101.812 33.6926L102.13 89.9956L53.963 117.305L5.84396 89.6751ZM54.1285 0L0.0217733 30.6568L0 93.0271L53.9412 124L108 93.3519L107.643 30.319L54.1285 0Z" fill="#C2262E"/>
<path d="M68.4859 42.8996L72.6315 40.3488L56.2231 31.5749L33.0868 44.8571L37.6418 47.3039L46.129 42.4276L56.6063 47.8019L60.482 45.4157L50.3835 39.9851L56.4147 36.5249L68.4859 42.8996Z" fill="#C2262E"/>
<path d="M71.5036 52.5743C70.9157 51.6649 70.0578 51.1712 68.93 51.1019C68.3682 51.0846 67.7716 51.1798 67.1489 51.392C66.5262 51.6042 65.873 51.9117 65.1937 52.3231C64.7016 52.6176 64.301 52.8775 63.9961 53.0897C63.6913 53.3062 63.4562 53.4794 63.2907 53.6093C63.2689 53.8172 63.2428 54.0034 63.221 54.1637C63.1992 54.3239 63.1818 54.5231 63.1687 54.7526C63.1557 54.9865 63.147 55.3113 63.1339 55.7227C63.1208 56.1341 63.1034 56.7188 63.0817 57.481C63.0599 58.6286 63.0381 59.9191 63.0294 61.3526C63.0163 62.786 63.012 64.1675 63.012 65.497V70.8411C63.9744 70.2651 64.8714 69.6675 65.7075 69.0525C66.5393 68.4375 67.3449 67.723 68.12 66.9002C68.8734 66.125 69.5179 65.3021 70.0578 64.4273C70.5978 63.5526 71.0376 62.6648 71.3773 61.764C71.717 60.8632 71.9695 59.9581 72.135 59.0487C72.3005 58.1392 72.3832 57.2471 72.3832 56.3723C72.3832 54.7526 72.0871 53.4881 71.5036 52.5743ZM74.996 80.7626C74.7826 80.5981 74.6302 80.4725 74.5388 80.3815C74.443 80.2906 74.3385 80.1866 74.2209 80.0611C74.1033 79.9355 73.9552 79.7406 73.7811 79.4721C73.6069 79.2036 73.3282 78.8138 72.9537 78.2898C72.5051 77.6532 72.1132 77.0686 71.7736 76.5446C71.4339 76.0205 71.0855 75.5095 70.7328 75.0028C70.3801 74.5048 69.9969 74.0111 69.5875 73.5261C69.1782 73.041 68.6861 72.517 68.1244 71.9497C67.6541 71.4863 67.1446 71.0966 66.5915 70.7804C66.0385 70.4643 65.455 70.408 64.8453 70.6115C64.3968 70.7501 64.0571 70.8887 63.8219 71.0316C63.6086 71.1572 63.3386 71.3044 63.012 71.469V76.9603C63.012 78.515 63.025 79.8229 63.0468 80.8752C63.0686 81.8973 63.0904 82.7764 63.1165 83.5083C63.1383 84.2402 63.2689 84.7772 63.5041 85.1236C63.6913 85.4311 64.0571 85.6433 64.5971 85.7559C65.1371 85.8685 65.8904 85.6693 66.8528 85.1539V85.639L55.5742 92.4035V91.9184C56.1621 91.4377 56.7238 90.905 57.2638 90.3204C57.8038 89.7358 58.2262 89.0948 58.5354 88.3933C58.653 88.1291 58.7444 87.7826 58.8141 87.3496C58.8838 86.9165 58.9404 86.4488 58.9709 85.9421C59.0057 85.4354 59.0362 84.8984 59.0579 84.3354C59.0797 83.7724 59.0928 83.2311 59.0928 82.7114C59.0928 82.2567 59.0971 81.6374 59.1102 80.8536C59.1233 80.0697 59.132 79.2122 59.145 78.2811C59.1581 77.3501 59.1625 76.3973 59.1625 75.4272V63.1325C59.1625 62.5478 59.1581 61.9632 59.145 61.3699C59.132 60.7766 59.1102 60.2266 59.0754 59.7113C59.0405 59.1959 58.9796 58.7455 58.8968 58.3601C58.8141 57.9703 58.7052 57.7235 58.5615 57.6109C58.2088 57.3034 57.8169 57.1908 57.3814 57.2731C56.9459 57.3554 56.4147 57.5243 55.7789 57.7711V57.2861C55.9661 57.1735 56.4495 56.8877 57.2246 56.4199C58.0215 55.9392 58.9273 55.3892 59.9376 54.77C60.9479 54.1507 61.9582 53.5314 62.9684 52.9294C63.9787 52.3231 64.8017 51.8294 65.4332 51.4483C67.0052 50.5043 68.4031 49.7334 69.6267 49.1271C70.8504 48.5251 71.9652 48.2913 72.9755 48.4299C74.0075 48.5555 74.8436 49.0665 75.4794 49.9672C76.1152 50.868 76.4331 52.2885 76.4331 54.233C76.4331 55.4326 76.2763 56.6062 75.9584 57.7495C75.6405 58.8971 75.2181 59.9927 74.6912 61.0364C74.1643 62.0801 73.5459 63.0762 72.8405 64.0159C72.135 64.96 71.3947 65.8391 70.6196 66.662V66.8049C71.0202 66.8568 71.4078 67.0474 71.7823 67.3722C72.1568 67.697 72.5226 68.0954 72.8753 68.5631C73.4849 69.4293 74.1512 70.3604 74.8697 71.3564C75.5839 72.3525 76.2284 73.2316 76.7901 73.9981C77.6567 75.1631 78.5059 75.8863 79.3289 76.1678C80.1519 76.4536 81.1143 76.38 82.2204 75.9426V76.4276L74.996 80.7583V80.7626Z" fill="#C2262E"/>
<path d="M37.6461 83.989C42.8064 86.8429 46.3685 85.1453 46.3685 75.2453C46.3685 64.0636 43.4509 57.5935 37.4632 54.2806L36.0523 53.5011V83.1098L37.6461 83.9933V83.989ZM28.4055 79.2339L29.7859 79.8229C30.8615 80.2862 31.1359 80.126 31.1359 78.4024V52.7692C31.1359 51.0456 30.8615 50.5822 29.7859 49.8546L28.4055 48.9149V47.3255L37.6505 52.4357C45.8808 56.9873 51.8684 66.1769 51.8684 76.7827C51.8684 87.3885 45.8808 90.485 37.8943 86.072L28.4055 80.8232V79.2339Z" fill="#C2262E"/>
</g>
<defs>
<clipPath id="clip0_22_203">
<rect width="108" height="124" fill="white"/>
</clipPath>
</defs>
</svg>
