<svg width="530" height="507" viewBox="0 0 530 507" fill="none" xmlns="http://www.w3.org/2000/svg">
<g clip-path="url(#clip0_22_327)">
<path d="M356.373 410.267L440.09 458.634L356.373 507V410.267ZM269.157 458.634L352.875 410.267V507L269.157 458.634ZM358.122 407.245L440.86 359.451V455.051L358.122 407.257V407.245ZM268.388 359.439L351.125 407.234L268.388 455.028V359.427V359.439ZM356.373 309.743L438.131 356.977L356.373 404.211V309.743ZM271.116 356.977L352.875 309.743V404.211L271.116 356.977ZM445.28 255.157L529.242 303.663L445.28 352.17V255.169V255.157ZM179.528 303.652L263.245 255.285V352.018L179.528 303.652ZM0.769654 303.652L84.487 255.285V352.018L0.769654 303.652ZM266.755 255.285L350.472 303.652L266.755 352.018V255.285ZM87.9854 255.285L171.703 303.652L87.9854 352.018V255.285ZM358.297 303.652L441.781 255.425V351.878L358.297 303.652ZM89.7346 252.263L172.472 204.469V300.069L89.7346 252.275V252.263ZM357.528 204.457L440.265 252.251L357.528 300.046V204.445V204.457ZM178.77 204.457L261.507 252.251L178.77 300.046V204.445V204.457ZM447.262 252.263L530 204.469V300.069L447.262 252.275V252.263ZM268.504 252.263L351.242 204.469V300.069L268.504 252.275V252.263ZM0 204.457L82.7378 252.251L0 300.058V204.457ZM445.28 154.62L527.271 201.995L445.28 249.369V154.632V154.62ZM181.498 201.995L263.257 154.76V249.229L181.498 201.995ZM2.72877 201.995L84.487 154.76V249.229L2.72877 201.995ZM87.9854 154.76L169.744 201.995L87.9854 249.229V154.76ZM266.755 154.76L348.513 201.995L266.755 249.229V154.76ZM360.256 201.995L441.781 154.9V249.089L360.256 201.995ZM356.373 100.525L440.09 148.891L356.373 197.257V100.525ZM269.157 148.891L352.875 100.525V197.257L269.157 148.891ZM358.122 97.491L440.86 49.6965V145.297L358.122 97.5027V97.491ZM268.388 49.6965L351.125 97.491L268.388 145.286V49.6965ZM356.373 0L438.131 47.2344L356.373 94.4689V0ZM271.116 47.2344L352.875 0V94.4689L271.116 47.2344Z" fill="black"/>
</g>
<defs>
<clipPath id="clip0_22_327">
<rect width="530" height="507" fill="white"/>
</clipPath>
</defs>
</svg>
